<svg width="0" height="0" class="hidden"><symbol viewBox="0 0 470.513 470.513" xmlns="http://www.w3.org/2000/svg" id="icon-facebook"><path fill="#fff" d="M271.52 154.17v-40.541c0-6.086.28-10.8.849-14.13.567-3.335 1.857-6.615 3.859-9.853 1.999-3.236 5.236-5.47 9.706-6.708 4.476-1.24 10.424-1.858 17.85-1.858h40.539V0h-64.809c-37.5 0-64.433 8.897-80.803 26.691-16.368 17.798-24.551 44.014-24.551 78.658v48.82h-48.542v81.086h48.539v235.26h97.362v-235.26h64.805l8.566-81.086h-73.37z"/></symbol><symbol viewBox="0 0 512 512" xmlns="http://www.w3.org/2000/svg" id="icon-linkedin"><path fill="#fff" d="M0 160h114.5v352H0zm426.37 4.13c-1.216-.384-2.368-.8-3.648-1.152a74.218 74.218 0 00-4.64-.896c-6.08-1.216-12.736-2.08-20.544-2.08-66.752 0-109.09 48.544-123.04 67.296v-67.296h-114.5v352h114.5v-192s86.528-120.51 123.04-32v224h114.46v-237.54c0-53.184-36.448-97.504-85.632-110.34z"/><circle fill="#fff" cx="56" cy="56" r="56"/></symbol><symbol viewBox="0 0 512 512" xmlns="http://www.w3.org/2000/svg" id="icon-twitter"><path fill="#fff" d="M512 97.248c-19.04 8.352-39.328 13.888-60.48 16.576 21.76-12.992 38.368-33.408 46.176-58.016-20.288 12.096-42.688 20.64-66.56 25.408C411.872 60.704 384.416 48 354.464 48c-58.112 0-104.9 47.168-104.9 104.99 0 8.32.704 16.32 2.432 23.936-87.264-4.256-164.48-46.08-216.35-109.79-9.056 15.712-14.368 33.696-14.368 53.056 0 36.352 18.72 68.576 46.624 87.232-16.864-.32-33.408-5.216-47.424-12.928v1.152c0 51.008 36.384 93.376 84.096 103.14-8.544 2.336-17.856 3.456-27.52 3.456-6.72 0-13.504-.384-19.872-1.792 13.6 41.568 52.192 72.128 98.08 73.12-35.712 27.936-81.056 44.768-130.14 44.768-8.608 0-16.864-.384-25.12-1.44 46.496 29.984 101.6 47.104 161.02 47.104 193.15 0 298.75-160 298.75-298.69 0-4.64-.16-9.12-.384-13.568 20.832-14.784 38.336-33.248 52.608-54.496z"/></symbol></svg>