<svg width="0" height="0" class="hidden">
  <symbol viewBox="0 0 473.932 473.932" xmlns="http://www.w3.org/2000/svg" id="icon-share">
    <path d="M385.51 301.21c-27.438 0-51.64 13.072-67.452 33.09l-146.66-75.002c1.92-7.161 3.3-14.56 3.3-22.347 0-8.477-1.639-16.458-3.926-24.224l146.01-74.656c15.725 20.924 40.553 34.6 68.746 34.6 47.758 0 86.391-38.633 86.391-86.348.001-47.672-38.633-86.327-86.39-86.327-47.65 0-86.326 38.655-86.326 86.326 0 7.809 1.381 15.229 3.322 22.412l-146.64 75.002c-15.833-20.039-40.079-33.154-67.56-33.154-47.715 0-86.326 38.676-86.326 86.369s38.612 86.348 86.326 86.348c28.236 0 53.043-13.719 68.832-34.664l145.95 74.656c-2.287 7.744-3.947 15.79-3.947 24.289 0 47.693 38.676 86.348 86.326 86.348 47.758 0 86.391-38.655 86.391-86.348.022-47.736-38.611-86.37-86.369-86.37z"
      ></path>
  </symbol>
  <symbol viewBox="0 0 55.867 55.867" xmlns="http://www.w3.org/2000/svg" id="icon-star">
    <path d="M55.818 21.578a1.002 1.002 0 0 0-.808-.681l-18.09-2.629-8.09-16.392a.998.998 0 0 0-1.792 0l-8.091 16.393-18.09 2.629a1.002 1.002 0 0 0-.555 1.705l13.091 12.76-3.091 18.018c-.064.375.09.754.397.978a.992.992 0 0 0 1.053.076l16.182-8.506 16.18 8.506a1 1 0 0 0 1.451-1.054l-3.09-18.017 13.091-12.761c.272-.267.37-.664.252-1.025z"></path>
  </symbol>
  <symbol viewBox="0 0 561 561" xmlns="http://www.w3.org/2000/svg" id="icon-thumb">
    <path d="M0 535.5h102v-306H0v306zM561 255c0-28.05-22.95-51-51-51H349.35l25.5-117.3v-7.65c0-10.2-5.1-20.4-10.199-28.05L336.6 25.5 168.3 193.8c-10.2 7.65-15.3 20.4-15.3 35.7v255c0 28.05 22.95 51 51 51h229.5c20.4 0 38.25-12.75 45.9-30.6l76.5-181.05c2.55-5.1 2.55-12.75 2.55-17.85v-51H561v.001z"></path>
  </symbol>
  <symbol viewBox="0 0 512 512" xmlns="http://www.w3.org/2000/svg" id="icon-bell">
    <path d="M467.81 431.85l-36.629-61.056a181.363 181.363 0 0 1-25.856-93.312v-53.483c0-67.52-45.056-124.63-106.67-143.04V42.666c0-23.531-19.136-42.667-42.667-42.667s-42.667 19.136-42.667 42.667v38.293c-61.61 18.411-106.67 75.52-106.67 143.04v53.483c0 32.853-8.939 65.109-25.835 93.291l-36.629 61.056c-1.984 3.307-2.027 7.403-.128 10.752S49.478 448 53.318 448h405.33c3.84 0 7.381-2.069 9.28-5.397 1.899-3.329 1.835-7.468-.128-10.753zm-278.99 37.48c12.032 25.131 37.504 42.667 67.178 42.667s55.147-17.536 67.179-42.667h-134.36z"></path>
  </symbol>
  <symbol xmlns="http://www.w3.org/2000/svg" viewBox="131 -131 512 512" id="icon-board">
    <path d="M643 47.7V-3.2h-50.9v-51c0-28.1-22.8-50.9-50.9-50.9H181.9c-28.1 0-50.9 22.8-50.9 50.9v358.3c0 28.1 22.8 50.9 50.9 50.9h358.3c28.1 0 50.9-22.8 50.9-50.9v-50.9H642v-50.9h-50.9v-50.9H642v-50.9h-50.9V49.6H643v-1.9zM540.2 303.3H181.9V-55h358.3v358.3zM232.9 149.6h128.2v102.8H232.9V149.6zM386.6-4.1h102.8v77.3H386.6V-4.1zm-153.7 0h128.2v128.2H232.9V-4.1zM386.6 98.7h102.8v153.7H386.6V98.7z"></path>
  </symbol>
  <symbol viewBox="0 0 384 384" xmlns="http://www.w3.org/2000/svg" id="icon-hub">
    <path d="M298.667 277.333L213.333 192v-67.84C238.08 115.2 256 91.733 256 64c0-35.413-28.587-64-64-64s-64 28.587-64 64c0 27.733 17.92 51.2 42.667 60.16V192l-85.333 85.333H0V384h106.667v-65.067l85.333-89.6 85.333 89.6V384H384V277.333h-85.333z"></path>
  </symbol>
</svg>