<?xml version="1.0" encoding="utf-8"?>
<!-- Generator: Adobe Illustrator 19.0.0, SVG Export Plug-In . SVG Version: 6.00 Build 0)  -->
<svg version="1.1" id="Layer_1" xmlns="http://www.w3.org/2000/svg" xmlns:xlink="http://www.w3.org/1999/xlink" x="0px" y="0px"
	 viewBox="131 -131 512 512" style="enable-background:new 0 0 512 512;" xml:space="preserve">
<g id="XMLID_9_">
	<path id="XMLID_17_" d="M643,47.7V-3.2h-50.9v-51c0-28.1-22.8-50.9-50.9-50.9H181.9c-28.1,0-50.9,22.8-50.9,50.9v358.3
		c0,28.1,22.8,50.9,50.9,50.9h358.3c28.1,0,50.9-22.8,50.9-50.9v-50.9H642v-50.9h-50.9v-50.9H642v-50.9h-50.9V49.6H643V47.7z
		 M540.2,303.3H181.9V-55h358.3L540.2,303.3L540.2,303.3z M232.9,149.6h128.2v102.8H232.9V149.6z M386.6-4.1h102.8v77.3H386.6V-4.1z
		 M232.9-4.1h128.2v128.2H232.9V-4.1z M386.6,98.7h102.8v153.7H386.6V98.7z" fill="#1ab798"/>
</g>
</svg>
