<svg width="0" height="0" class="hidden">
  <symbol viewBox="0 0 505.145 505.145" xmlns="http://www.w3.org/2000/svg" id="icon-android">
    <path d="M68.541 164.72h-1.294c-16.588 0-30.113 13.568-30.113 30.113v131.11c0 16.61 13.525 30.134 30.113 30.134h1.316c16.588 0 30.113-13.568 30.113-30.134v-131.11c-.022-16.544-13.568-30.112-30.135-30.112zm44.539 211.82c0 15.229 12.446 27.632 27.675 27.632h29.574v70.817c0 16.631 13.568 30.156 30.113 30.156h1.294c16.61 0 30.156-13.546 30.156-30.156v-70.817h41.33v70.817c0 16.631 13.611 30.156 30.156 30.156h1.273c16.609 0 30.134-13.546 30.134-30.156v-70.817h29.595c15.207 0 27.654-12.403 27.654-27.632V169.52h-278.95v207.02zM322.04 43.983l23.491-36.26c1.51-2.287.841-5.414-1.467-6.903-2.286-1.51-5.414-.884-6.903 1.467l-24.353 37.512c-18.27-7.485-38.676-11.691-60.226-11.691-21.571 0-41.934 4.206-60.247 11.691l-24.31-37.512C166.537-.064 163.387-.69 161.079.82c-2.308 1.488-2.977 4.616-1.467 6.903l23.512 36.26c-42.387 20.773-70.968 59.924-70.968 104.83 0 2.761.173 5.479.41 8.175h280.05c.237-2.696.388-5.414.388-8.175.001-44.91-28.602-84.061-70.967-104.83zm-134.39 64.928c-7.442 0-13.482-5.997-13.482-13.46s6.04-13.439 13.482-13.439c7.485 0 13.482 5.975 13.482 13.439s-6.04 13.46-13.482 13.46zm129.84 0c-7.442 0-13.482-5.997-13.482-13.46s6.04-13.439 13.482-13.439c7.463 0 13.46 5.975 13.46 13.439 0 7.463-5.997 13.46-13.46 13.46zm120.39 55.809h-1.251c-16.588 0-30.156 13.568-30.156 30.113v131.11c0 16.61 13.59 30.134 30.156 30.134h1.273c16.609 0 30.113-13.568 30.113-30.134v-131.11c0-16.544-13.547-30.112-30.135-30.112z"
      fill="#fff"></path>
  </symbol>
  <symbol viewBox="0 0 305 305" xmlns="http://www.w3.org/2000/svg" id="icon-apple">
    <path fill="#fff" d="M40.738 112.12c-25.785 44.745-9.393 112.65 19.121 153.82 14.233 20.584 28.643 39.061 48.38 39.061.372 0 .745-.007 1.127-.022 9.273-.37 15.974-3.225 22.453-5.984 7.274-3.1 14.797-6.305 26.597-6.305 11.226 0 18.39 3.101 25.318 6.099 6.828 2.954 13.861 6.01 24.253 5.815 22.232-.414 35.882-20.352 47.925-37.941 12.567-18.365 18.871-36.196 20.998-43.01l.086-.271a2.5 2.5 0 0 0-1.328-3.066c-.032-.015-.15-.064-.183-.078-3.915-1.601-38.257-16.836-38.618-58.36-.335-33.736 25.763-51.601 30.997-54.839l.244-.152a2.498 2.498 0 0 0 .71-3.511c-18.014-26.362-45.624-30.335-56.74-30.813a50.043 50.043 0 0 0-4.95-.242c-13.056 0-25.563 4.931-35.611 8.893-6.936 2.735-12.927 5.097-17.059 5.097-4.643 0-10.668-2.391-17.645-5.159-9.33-3.703-19.905-7.899-31.1-7.899-.267 0-.53.003-.789.008-26.03.383-50.626 15.275-64.186 38.859z"></path>
    <path fill="#fff" d="M212.1.002c-15.763.642-34.672 10.345-45.974 23.583-9.605 11.127-18.988 29.679-16.516 48.379a2.499 2.499 0 0 0 2.284 2.164c1.064.083 2.15.125 3.232.126 15.413 0 32.04-8.527 43.395-22.257 11.951-14.498 17.994-33.104 16.166-49.77A2.515 2.515 0 0 0 212.1.002z"></path>
  </symbol>
</svg>